# xmcd
#
# Track frame offsets:
#	150
#	50280
#	62537
#	80600
#	116683
#	133243
#	179377
#
# Disc length: 2658 seconds
#
# Revision: 1
# Processed by: cddbd v1.5.2PL0 Copyright (c) Steve Scherf et al.
# Submitted via: audiograbber 1.83.01
#
DISCID=5d0a6007
DTITLE=Юрий Наумов - Архивные записи №2
DYEAR=1985
DGENRE=Blues
TTITLE0=Катафалк
TTITLE1=Инструментал
TTITLE2=Никак не похоже на блюз
TTITLE3=Бэйби-блюз
TTITLE4=Осенний ноктюрн (настройка)
TTITLE5=Осенний блюз
TTITLE6=Любовь
EXTD=
EXTT0=
EXTT1=
EXTT2=
EXTT3=
EXTT4=
EXTT5=
EXTT6=
PLAYORDER=
